<svg version="1.1" id="Layer_1" xmlns="http://www.w3.org/2000/svg" xmlns:xlink="http://www.w3.org/1999/xlink" x="0px" y="0px"
	 width="100%" viewBox="0 0 800 800" enable-background="new 0 0 800 800" xml:space="preserve">
<path fill="#000000" opacity="1.000000" stroke="none" 
	d="
M475.077789,477.508301 
	C457.317261,482.014435 446.961578,479.691559 434.126404,468.526764 
	C433.901184,468.724915 433.492645,468.911255 433.478271,469.124207 
	C432.925415,477.315186 432.930176,477.318695 424.432129,477.330536 
	C420.101746,477.336548 415.748169,477.047821 411.447144,477.402374 
	C406.670959,477.796051 405.399323,475.744415 405.583221,471.326721 
	C405.860046,464.676056 405.659851,458.005402 405.659607,451.343262 
	C405.658295,415.367645 405.651947,379.392029 405.658173,343.416412 
	C405.659332,336.678406 405.682098,336.671356 412.597931,336.658966 
	C418.094177,336.649139 423.602478,336.883118 429.082855,336.588501 
	C433.337219,336.359833 434.451721,338.073456 434.402161,342.094574 
	C434.219452,356.915558 434.335388,371.740204 434.338898,386.563477 
	C434.339294,388.184204 434.338959,389.804932 434.338959,391.989197 
	C437.591461,390.945068 439.066650,388.590057 441.105255,387.061005 
	C450.625153,379.920685 461.631866,380.555511 472.211182,382.321014 
	C499.550354,386.883514 513.765564,412.218811 509.486267,437.748322 
	C506.098145,457.961182 494.449005,470.730804 475.077789,477.508301 
M477.145264,446.590698 
	C481.274872,438.900238 481.325409,430.533813 480.365326,422.288025 
	C479.610321,415.804169 477.269836,409.932922 470.511261,406.641357 
	C455.508514,399.334656 436.821991,407.933350 433.617340,424.119965 
	C432.982147,427.328583 432.911530,430.838409 433.462128,434.058563 
	C435.492004,445.930023 439.765137,453.601868 450.899719,455.309052 
	C454.318939,455.833282 457.864197,455.730835 461.343201,455.627899 
	C467.855377,455.435181 473.181946,452.906158 477.145264,446.590698 
z"/>
<path fill="#000000" opacity="1.000000" stroke="none" 
	d="
M344.343506,452.000061 
	C344.341339,459.164917 344.199707,465.833710 344.390015,472.493042 
	C344.496429,476.216797 343.014618,477.493927 339.391174,477.371704 
	C333.566071,477.175140 327.719269,477.107880 321.901154,477.389404 
	C317.609161,477.597107 316.525116,475.778748 316.591431,471.804291 
	C316.783234,460.310608 316.414703,448.804718 316.743195,437.317261 
	C316.953491,429.963257 315.930481,422.726929 315.505707,415.444794 
	C314.905975,405.163177 304.226135,400.835907 294.470551,406.800964 
	C287.329346,411.167480 283.433472,417.729492 283.378143,426.203247 
	C283.279144,441.365173 283.212524,456.530151 283.431366,471.689545 
	C283.493683,476.005096 282.282806,477.672241 277.797638,477.411591 
	C271.819275,477.064178 265.799896,477.156372 259.809662,477.375122 
	C255.963272,477.515594 254.546997,476.234497 254.592926,472.236176 
	C254.778625,456.076019 253.912491,439.868744 254.842163,423.760071 
	C256.389008,396.957550 255.102051,370.170013 255.634033,343.383423 
	C255.766785,336.700073 255.678467,336.688416 262.132538,336.666290 
	C266.964539,336.649719 271.796600,336.651764 276.628601,336.665680 
	C283.328217,336.684998 283.341095,336.693054 283.345703,343.654053 
	C283.354919,357.483643 283.328796,371.313293 283.374847,385.142731 
	C283.380188,386.740845 282.857788,388.476318 284.103119,390.001465 
	C286.373535,390.407867 287.763794,388.802124 289.280182,387.618134 
	C299.263397,379.823181 320.605499,379.021973 331.046112,387.511444 
	C338.387970,393.481232 341.761780,401.320099 343.274261,410.143005 
	C345.624054,423.850067 343.825348,437.715424 344.343506,452.000061 
z"/>
<path fill="#000000" opacity="1.000000" stroke="none" 
	d="
M242.035004,466.101654 
	C243.850525,469.779846 247.031555,472.366486 247.570084,477.331879 
	C240.889496,477.331879 234.416718,476.691437 228.124298,477.483643 
	C218.936157,478.640381 213.556137,475.329620 209.327759,467.030457 
	C204.317657,457.196991 197.684158,448.190643 191.341354,438.173676 
	C186.987686,442.304108 181.726456,444.821228 182.228775,452.038483 
	C182.713303,459.000031 182.237885,466.023590 182.377655,473.016052 
	C182.442368,476.253662 181.172348,477.445190 177.965744,477.370209 
	C171.473663,477.218414 164.970856,477.171143 158.481888,477.377045 
	C154.716522,477.496521 153.583603,475.934357 153.604950,472.360901 
	C153.673477,460.896881 154.322144,449.443024 154.493637,437.999695 
	C154.967789,406.361572 154.757584,374.711060 154.550674,343.067169 
	C154.518250,338.106934 155.771317,336.173279 160.943314,336.566650 
	C166.573532,336.994934 172.270630,336.858734 177.921341,336.596832 
	C181.972046,336.409058 183.591400,337.717529 183.413284,341.946869 
	C183.022263,351.230988 182.075790,360.478394 182.268066,369.808441 
	C182.566299,384.280396 182.346832,398.763031 182.346832,414.536224 
	C189.587128,406.801239 196.377563,400.115173 202.475006,392.847748 
	C207.112808,387.320038 211.335770,382.667206 219.672485,383.478180 
	C228.062866,384.294403 236.594543,383.657806 244.830063,383.657806 
	C245.758224,385.562347 244.653793,386.287811 243.885666,387.086761 
	C234.436508,396.914764 225.078644,406.834503 215.445251,416.478882 
	C212.623978,419.303375 211.902664,421.388824 214.339294,424.922119 
	C223.661057,438.439423 232.703232,452.149597 242.035004,466.101654 
z"/>
<path fill="#000000" opacity="1.000000" stroke="none" 
	d="
M640.961609,381.652863 
	C650.989014,381.241455 659.728638,383.404083 667.864929,388.677460 
	C677.195862,394.725220 680.604736,403.804779 681.212952,414.034607 
	C681.814758,424.156769 681.333557,434.342499 681.354187,444.500305 
	C681.368530,451.547150 681.841248,452.241730 688.749573,453.692322 
	C690.968628,454.158234 691.307983,455.439301 691.310059,457.224823 
	C691.316284,462.719788 691.244751,468.216095 691.347351,473.709167 
	C691.401978,476.636322 689.921692,477.348511 687.314209,477.360016 
	C677.639160,477.402740 668.252930,476.764893 661.737854,467.495544 
	C651.341919,478.485779 638.356018,480.160919 624.779541,479.274902 
	C612.447205,478.470093 601.385742,474.222748 595.210266,462.848358 
	C585.847229,445.603149 593.926758,427.758789 613.370544,421.666504 
	C624.519470,418.173309 635.071411,416.694855 652.896179,421.800079 
	C655.643005,410.627594 650.288147,403.389984 639.230957,403.355927 
	C632.846497,403.336273 626.400146,403.104187 622.969360,410.228638 
	C622.177551,411.873016 620.316956,411.314667 618.889832,411.327850 
	C612.895630,411.383423 606.900146,411.392273 600.905884,411.338226 
	C595.352051,411.288177 594.572388,410.083954 596.873291,405.117554 
	C604.090576,389.539459 616.195129,381.551971 633.475769,381.651215 
	C635.807129,381.664612 638.138550,381.653076 640.961609,381.652863 
M653.139160,442.671997 
	C645.388611,435.389740 636.019104,436.809814 626.888428,438.197327 
	C621.957520,438.946655 620.440125,443.455994 620.687500,447.692719 
	C620.944580,452.094696 622.979065,455.652344 628.148926,456.912994 
	C634.817688,458.539215 641.080627,457.415131 647.012573,454.824860 
	C651.637634,452.805206 654.850525,449.167999 653.139160,442.671997 
z"/>
<path fill="#000000" opacity="1.000000" stroke="none" 
	d="
M101.168442,446.281616 
	C100.879410,439.054840 100.680611,432.236633 100.671555,425.418182 
	C100.635063,397.939301 100.783928,370.459259 100.543839,342.982422 
	C100.499237,337.878143 102.014511,336.217621 107.037926,336.569885 
	C112.672455,336.964966 118.366501,336.867035 124.015091,336.587891 
	C128.184921,336.381836 129.435562,337.946655 129.417282,342.039917 
	C129.283493,372.016327 129.344238,401.993591 129.348770,431.970612 
	C129.350327,442.247589 130.694046,443.859467 140.682724,444.618896 
	C143.555176,444.837280 144.373840,446.087830 144.352966,448.687836 
	C144.287506,456.847687 144.299667,465.008453 144.337006,473.168610 
	C144.348373,475.656525 143.777954,477.252991 140.772003,477.338837 
	C121.191353,477.897858 104.853989,468.187317 101.168442,446.281616 
z"/>
<path fill="#000000" opacity="1.000000" stroke="none" 
	d="
M588.347534,402.794128 
	C588.067505,409.404907 587.937378,409.769928 581.989990,408.248505 
	C576.062927,406.732239 570.476257,407.596527 564.892944,409.315948 
	C556.673889,411.847015 552.753174,417.825684 551.286438,426.058685 
	C549.870728,434.005768 550.500793,441.968231 550.373047,449.925537 
	C550.250122,457.583954 550.255432,465.247131 550.377869,472.905457 
	C550.427856,476.035309 549.397461,477.457367 546.081116,477.370361 
	C539.757263,477.204407 533.424438,477.219666 527.098877,477.342163 
	C523.966370,477.402802 522.624268,476.317963 522.633118,473.023743 
	C522.709290,444.713989 522.722229,416.403748 522.618408,388.094177 
	C522.605103,384.467438 524.130188,383.524536 527.411560,383.628448 
	C532.568665,383.791748 537.734985,383.657379 542.897400,383.660736 
	C550.783936,383.665863 550.783936,383.670105 551.801880,391.789948 
	C553.413818,390.343170 554.778137,389.002716 556.260010,387.807983 
	C564.733582,380.975769 574.716736,381.114166 584.763489,381.831329 
	C587.276489,382.010712 588.388489,383.728516 588.346741,386.333038 
	C588.261292,391.660431 588.337830,396.990417 588.347534,402.794128 
z"/>
<path fill="#000000" opacity="1.000000" stroke="none" 
	d="
M389.349640,401.001587 
	C389.346130,423.960449 389.356842,446.419556 389.330994,468.878601 
	C389.321686,476.950195 388.916565,477.321899 380.892822,477.331573 
	C375.735565,477.337769 370.575104,477.209412 365.422211,477.356415 
	C362.149933,477.449768 360.601166,476.474792 360.614166,472.862915 
	C360.715881,444.581543 360.706665,416.299591 360.638947,388.018036 
	C360.631287,384.819458 361.779358,383.560242 365.006378,383.630127 
	C371.657715,383.774200 378.316071,383.756958 384.968201,383.630615 
	C388.155792,383.570099 389.482147,384.802124 389.364349,388.026031 
	C389.212585,392.179230 389.341400,396.342712 389.349640,401.001587 
z"/>
<path fill="#000000" opacity="1.000000" stroke="none" 
	d="
M661.694763,326.157776 
	C661.691284,323.169586 663.308655,322.695007 665.358826,322.696533 
	C676.151733,322.704437 686.944702,322.722443 697.737427,322.680084 
	C700.253662,322.670227 701.361328,323.746735 701.334778,326.277710 
	C701.273560,332.107025 701.555908,337.949677 701.257263,343.764252 
	C700.905579,350.612518 693.356934,356.778595 686.436646,356.298553 
	C684.749695,356.181488 682.883850,356.255951 682.813660,353.891998 
	C682.753418,351.863770 681.853271,349.510223 684.840332,348.465637 
	C687.421753,347.562866 689.444580,345.894867 690.689819,343.334717 
	C692.262634,340.100891 691.842407,338.219849 687.745850,338.297241 
	C685.385742,338.341797 682.686829,338.923462 681.718994,335.113556 
	C682.191772,342.653870 680.445496,348.735321 674.692810,353.336945 
	C672.514465,355.079407 670.180359,356.161072 667.472107,356.241760 
	C665.776611,356.292236 663.440735,356.947083 662.917297,354.428528 
	C662.414978,352.011292 662.055176,349.404114 665.076904,347.986511 
	C666.418396,347.357178 667.843506,346.669098 668.860413,345.641296 
	C670.305054,344.181213 671.027832,342.220093 670.415283,340.128510 
	C669.785583,337.978241 667.818665,338.253357 666.233459,338.361816 
	C662.713989,338.602661 661.415955,337.016357 661.646362,333.632446 
	C661.804382,331.311157 661.676086,328.970428 661.694763,326.157776 
z"/>
<path fill="#000000" opacity="1.000000" stroke="none" 
	d="
M379.611816,341.676514 
	C385.232574,342.304474 388.530151,344.900879 389.650543,350.211365 
	C390.595184,354.688721 390.559601,359.019684 389.495575,363.492554 
	C388.624359,367.154846 386.338745,369.739532 383.181396,370.585541 
	C377.904022,371.999695 372.338959,372.145721 367.015747,370.342987 
	C362.544464,368.828735 360.433167,365.565857 360.635651,360.777954 
	C360.755280,357.949921 360.618958,355.112061 360.667786,352.279846 
	C360.784943,345.484802 364.317169,341.902710 371.163940,341.679443 
	C373.827484,341.592590 376.496307,341.667938 379.611816,341.676514 
z"/>
</svg>