<svg xmlns="http://www.w3.org/2000/svg" xmlns:xlink="http://www.w3.org/1999/xlink" version="1.1" width="1000" height="1000" viewBox="0 0 1000 1000" xml:space="preserve">
<desc>Created with Fabric.js 3.5.0</desc>
<defs>
</defs>
<rect x="0" y="0" width="100%" height="100%" fill="#ffffff"/>
<g transform="matrix(0.8496 0 0 0.8496 499.9896 500)" id="674057">
<g style="" vector-effect="non-scaling-stroke">
		<g transform="matrix(1 0 0 1 -0.4 -29.6)">
<path style="stroke: none; stroke-width: 1; stroke-dasharray: none; stroke-linecap: butt; stroke-dashoffset: 0; stroke-linejoin: miter; stroke-miterlimit: 4; is-custom-font: none; font-file-url: none; fill: rgb(255,255,255); fill-rule: nonzero; opacity: 1;" transform=" translate(-588.1, -172.4)" d="M 201.8 286.9 h -90.2 l -20 -39.8 l -31.5 97 H 0 L 111.6 0.6 h 57.2 l 111.6 343.5 h -60.1 l -18.5 -57.2 z m -18.6 -57.2 L 140.3 97.8 L 97.4 229.7 h 85.8 z M 433 57.9 v 286.2 h -57.2 V 57.9 H 297 L 268.4 0.7 h 238 v 57.2 H 433 z m 514 62.2 v 224.1 h -57.2 V 0.7 h 63.3 l 79.9 164.9 L 1112.9 0.7 h 63.3 v 343.5 H 1119 V 120.1 l -85.9 177.5 L 947 120.1 z m -199.6 -19.4 H 642.5 c -3 0 -5.4 -2.4 -5.4 -5.4 c 0 -3 2.4 -5.4 5.4 -5.4 h 104.9 c 3 0 5.4 2.4 5.4 5.4 c 0 3 -2.4 5.4 -5.4 5.4 z m 0 48.3 H 642.5 c -3 0 -5.4 -2.4 -5.4 -5.4 c 0 -3 2.4 -5.4 5.4 -5.4 h 104.9 c 3 0 5.4 2.4 5.4 5.4 c 0 2.9 -2.4 5.4 -5.4 5.4 z m 0 48.2 H 642.5 c -3 0 -5.4 -2.4 -5.4 -5.4 c 0 -3 2.4 -5.4 5.4 -5.4 h 104.9 c 3 0 5.4 2.4 5.4 5.4 c 0 3 -2.4 5.4 -5.4 5.4 z m 0 48.2 h -50.6 c -3 0 -5.4 -2.4 -5.4 -5.4 c 0 -3 2.4 -5.4 5.4 -5.4 h 50.6 c 3 0 5.4 2.4 5.4 5.4 c 0 3 -2.4 5.4 -5.4 5.4 z" stroke-linecap="round"/>
</g>
		<g transform="matrix(1 0 0 1 109.15 0.3)">
<path style="stroke: none; stroke-width: 1; stroke-dasharray: none; stroke-linecap: butt; stroke-dashoffset: 0; stroke-linejoin: miter; stroke-miterlimit: 4; is-custom-font: none; font-file-url: none; fill: rgb(255,255,255); fill-rule: nonzero; opacity: 1;" transform=" translate(-697.65, -202.3)" d="M 814.3 1.3 H 581 c -11.9 0 -21.7 9.8 -21.7 21.7 v 307.4 c 0 11.9 9.8 21.7 21.7 21.7 h 123.1 l 86.7 51.2 v -51.2 h 23.5 c 11.9 0 21.7 -9.8 21.7 -21.7 V 23 c 0 -11.9 -9.8 -21.7 -21.7 -21.7 z M 613.6 290.5 V 62.9 c 0 -4 3.3 -7.3 7.3 -7.3 h 153.5 c 4 0 7.3 3.3 7.3 7.3 v 227.7 c 0 4 -3.3 7.3 -7.3 7.3 H 620.9 c -4 0 -7.3 -3.3 -7.3 -7.4 z" stroke-linecap="round"/>
</g>
</g>
</g>
<g transform="matrix(6.5244 0 0 2.2736 499.1916 501.6015)" id="495304">
<path style="stroke: rgb(0,153,255); stroke-width: 5; stroke-dasharray: none; stroke-linecap: butt; stroke-dashoffset: 0; stroke-linejoin: miter; stroke-miterlimit: 4; is-custom-font: none; font-file-url: none; fill: none; fill-rule: nonzero; opacity: 1;" vector-effect="non-scaling-stroke" transform=" translate(-79, -78.9999)" d="M 154.685 2.50049 H 154.711 L 154.738 2.49994 C 155.15 2.49126 155.491 2.81853 155.5 3.2304 L 155.5 3.23069 C 155.5 3.24095 155.5 3.25176 155.5 3.26283 L 155.499 3.28886 V 3.3149 V 154.686 C 155.499 155.135 155.135 155.5 154.685 155.5 H 3.31409 C 2.86449 155.5 2.5 155.135 2.5 154.686 V 3.3149 C 2.5 2.86483 2.86465 2.50049 3.31409 2.50049 H 154.685 Z" stroke-linecap="round"/>
</g>
<g transform="matrix(6.3331 0 0 2.1856 500.0039 501.6312)" id="660171" clip-path="url(#CLIPPATH_3)">
<clipPath id="CLIPPATH_3">
	<rect transform="matrix(1 0 0 1 0.0001 0.0002)" id="clip0_302_100" x="-79" y="-79" rx="0" ry="0" width="158" height="158"/>
</clipPath>
<path style="stroke: none; stroke-width: 1; stroke-dasharray: none; stroke-linecap: butt; stroke-dashoffset: 0; stroke-linejoin: miter; stroke-miterlimit: 4; is-custom-font: none; font-file-url: none; fill: rgb(250,250,250); fill-rule: nonzero; opacity: 1;" vector-effect="non-scaling-stroke" transform=" translate(-78.9999, -78.9998)" d="M 154.685 0.000367219 H 3.31409 C 1.48378 0.000367219 0 1.48415 0 3.31478 V 154.686 C 0 156.516 1.48378 158 3.31409 158 H 154.685 C 156.515 158 157.999 156.516 157.999 154.686 V 3.31478 C 158 3.26912 158 3.22347 157.999 3.17813 C 157.962 1.38523 156.478 -0.0373614 154.685 0.000367219 Z" stroke-linecap="round"/>
</g>
<g transform="matrix(1 0 0 1 500 449.7348)" style="" id="229264">
		
<path xml:space="preserve" font-family="Nunito" font-size="200" font-style="normal" font-weight="bold" style="stroke: none; stroke-width: 1; stroke-dasharray: none; stroke-linecap: butt; stroke-dashoffset: 0; stroke-linejoin: miter; stroke-miterlimit: 4; is-custom-font: none; font-file-url: none; fill: rgb(255,255,255); fill-rule: nonzero; opacity: 1; white-space: pre;" d="M0.00 64.43L0.00 64.43Q-12.80 64.43-12.80 51.03L-12.80 51.03L-12.80-1.97L-55.60-62.17Q-58.20-65.77-57.90-69.87Q-57.60-73.97-54.60-76.87Q-51.60-79.77-46.20-79.77L-46.20-79.77Q-38.40-79.77-32.60-71.57L-32.60-71.57L0.40-24.77L33.60-71.57Q36.80-75.97 39.80-77.87Q42.80-79.77 47.20-79.77L47.20-79.77Q55.00-79.77 57.50-74.07Q60.00-68.37 55.40-61.97L55.40-61.97L12.80-1.77L12.80 51.03Q12.80 64.43 0.00 64.43Z"/></g>
<g transform="matrix(1 0 0 1 500 570.06)" style="" id="342642">
		
<path xml:space="preserve" font-family="Nunito" font-size="200" font-style="normal" font-weight="bold" style="stroke: none; stroke-width: 1; stroke-dasharray: none; stroke-linecap: butt; stroke-dashoffset: 0; stroke-linejoin: miter; stroke-miterlimit: 4; is-custom-font: none; font-file-url: none; fill: rgb(255,255,255); fill-rule: nonzero; opacity: 1; white-space: pre;" d="M0.10 64.43L0.10 64.43Q-12.70 64.43-12.70 51.23L-12.70 51.23L-12.70-56.77L-51.70-56.77Q-62.70-56.77-62.70-67.57L-62.70-67.57Q-62.70-78.17-51.70-78.17L-51.70-78.17L51.90-78.17Q62.90-78.17 62.90-67.57L62.90-67.57Q62.90-56.77 51.90-56.77L51.90-56.77L12.90-56.77L12.90 51.23Q12.90 64.43 0.10 64.43Z"/></g>
</svg>